<?xml version="1.0" encoding="UTF-8"?>
<svg version="1.1" xmlns="http://www.w3.org/2000/svg" width="180" height="180">
<path d="M0 0 C59.4 0 118.8 0 180 0 C180 59.4 180 118.8 180 180 C120.6 180 61.2 180 0 180 C0 120.6 0 61.2 0 0 Z " fill="#232388" transform="translate(0,0)"/>
<path d="M0 0 C13.2 0 26.4 0 40 0 C40 3.3 40 6.6 40 10 C35.28741428 11.27798935 31.95734952 12 27 12 C27.33 27.18 27.66 42.36 28 58 C38.27242336 46.95151602 38.27242336 46.95151602 47.8828125 35.5234375 C50.68504185 32.18351101 53.74767664 29.16991899 56.86328125 26.125 C61.85242013 21.16322386 66.27047734 15.96723625 70 10 C67.69 10 65.38 10 63 10 C63 6.7 63 3.4 63 0 C74.55 0 86.1 0 98 0 C98 3.3 98 6.6 98 10 C95.8034375 10.2165625 95.8034375 10.2165625 93.5625 10.4375 C86.76140653 11.79195506 83.37616037 15.89723188 79 21 C78.44054687 21.63164063 77.88109375 22.26328125 77.3046875 22.9140625 C76.20227199 24.16559701 75.10884721 25.42509493 74.0234375 26.69140625 C70.84805432 30.31428551 67.55308758 33.82655994 64.26245117 37.34472656 C61.97544504 39.8026504 59.81909547 42.2339446 57.76171875 44.89453125 C57.18035156 45.58933594 56.59898438 46.28414062 56 47 C55.34 47 54.68 47 54 47 C61.07789068 56.69726754 68.22651316 66.33763741 75.44433594 75.93115234 C78.15402147 79.53471091 80.85789876 83.14262494 83.5625 86.75 C85.69607853 89.59561172 85.69607853 89.59561172 87.84106445 92.43261719 C88.7851859 93.7094783 89.66135859 95.03635573 90.515625 96.375 C93.42510486 99.56011479 97.91794078 99.36383493 102 100 C102 103.3 102 106.6 102 110 C89.79 110 77.58 110 65 110 C65 106.7 65 103.4 65 100 C67.64 100 70.28 100 73 100 C68.82259252 91.64518505 63.26279996 84.5282617 57.61816406 77.13574219 C54.95470932 73.62036771 52.3517124 70.06118487 49.75 66.5 C49.27224121 65.84692871 48.79448242 65.19385742 48.30224609 64.52099609 C47.20069824 63.01458145 46.10021843 61.50738588 45 60 C44.32686768 60.58007812 44.32686768 60.58007812 43.64013672 61.171875 C42.73158936 61.95304687 42.73158936 61.95304687 41.8046875 62.75 C41.16499023 63.30171875 40.52529297 63.8534375 39.86621094 64.421875 C38.40619214 65.65651152 36.90206025 66.83902261 35.3828125 68 C30.79422243 72.06463342 28.82742408 75.46062966 28.20703125 81.5390625 C27.87568483 87.03248404 27.87958456 92.49942275 28 98 C31.96 98.66 35.92 99.32 40 100 C40 103.3 40 106.6 40 110 C26.8 110 13.6 110 0 110 C0 106.7 0 103.4 0 100 C4.60547409 98.84863148 7.93994143 99 13 99 C12.67 70.29 12.34 41.58 12 12 C6.06 11.01 6.06 11.01 0 10 C0 6.7 0 3.4 0 0 Z " fill="#FBFBFC" transform="translate(39,35)"/>
</svg>
